<svg id="visual" viewBox="0 0 900 600" width="900" height="600" xmlns="http://www.w3.org/2000/svg" xmlns:xlink="http://www.w3.org/1999/xlink" version="1.1"><g stroke-width="1" stroke-linejoin="bevel"><path d="M488 327L393 364L477 395Z" fill="#c3ddea" stroke="#c3ddea"></path><path d="M488 327L375 268L393 364Z" fill="#f9fcfd" stroke="#f9fcfd"></path><path d="M488 327L463 233L375 268Z" fill="#f9fcfd" stroke="#f9fcfd"></path><path d="M463 233L396 237L375 268Z" fill="#e1eef4" stroke="#e1eef4"></path><path d="M282 223L309 297L375 268Z" fill="#edf5f8" stroke="#edf5f8"></path><path d="M375 268L309 297L393 364Z" fill="#ffffff" stroke="#ffffff"></path><path d="M309 297L296 376L393 364Z" fill="#c3ddea" stroke="#c3ddea"></path><path d="M393 364L402 505L477 395Z" fill="#c9e0ec" stroke="#c9e0ec"></path><path d="M296 376L332 460L393 364Z" fill="#e7f1f6" stroke="#e7f1f6"></path><path d="M332 460L402 505L393 364Z" fill="#edf5f8" stroke="#edf5f8"></path><path d="M617 510L618 374L477 395Z" fill="#cfe4ee" stroke="#cfe4ee"></path><path d="M477 395L618 374L488 327Z" fill="#edf5f8" stroke="#edf5f8"></path><path d="M488 327L622 274L463 233Z" fill="#cfe4ee" stroke="#cfe4ee"></path><path d="M402 505L507 536L477 395Z" fill="#c3ddea" stroke="#c3ddea"></path><path d="M618 374L622 274L488 327Z" fill="#e1eef4" stroke="#e1eef4"></path><path d="M375 128L282 223L396 237Z" fill="#e1eef4" stroke="#e1eef4"></path><path d="M396 237L282 223L375 268Z" fill="#edf5f8" stroke="#edf5f8"></path><path d="M309 297L221 361L296 376Z" fill="#e1eef4" stroke="#e1eef4"></path><path d="M205 300L221 361L309 297Z" fill="#f3f8fb" stroke="#f3f8fb"></path><path d="M296 376L171 482L332 460Z" fill="#dbebf2" stroke="#dbebf2"></path><path d="M507 536L617 510L477 395Z" fill="#ffffff" stroke="#ffffff"></path><path d="M618 374L671 292L622 274Z" fill="#e1eef4" stroke="#e1eef4"></path><path d="M696 435L671 292L618 374Z" fill="#c9e0ec" stroke="#c9e0ec"></path><path d="M463 233L375 128L396 237Z" fill="#cfe4ee" stroke="#cfe4ee"></path><path d="M530 130L375 128L463 233Z" fill="#cfe4ee" stroke="#cfe4ee"></path><path d="M530 130L463 233L622 188Z" fill="#dbebf2" stroke="#dbebf2"></path><path d="M622 188L463 233L622 274Z" fill="#cfe4ee" stroke="#cfe4ee"></path><path d="M707 216L622 188L622 274Z" fill="#edf5f8" stroke="#edf5f8"></path><path d="M233 182L205 300L282 223Z" fill="#c3ddea" stroke="#c3ddea"></path><path d="M282 223L205 300L309 297Z" fill="#e7f1f6" stroke="#e7f1f6"></path><path d="M402 505L435 600L507 536Z" fill="#ffffff" stroke="#ffffff"></path><path d="M507 536L582 600L617 510Z" fill="#f9fcfd" stroke="#f9fcfd"></path><path d="M299 600L435 600L402 505Z" fill="#f3f8fb" stroke="#f3f8fb"></path><path d="M299 600L402 505L332 460Z" fill="#d5e7f0" stroke="#d5e7f0"></path><path d="M435 600L517 600L507 536Z" fill="#c9e0ec" stroke="#c9e0ec"></path><path d="M617 510L696 435L618 374Z" fill="#c3ddea" stroke="#c3ddea"></path><path d="M267 131L233 182L282 223Z" fill="#e7f1f6" stroke="#e7f1f6"></path><path d="M517 600L582 600L507 536Z" fill="#cfe4ee" stroke="#cfe4ee"></path><path d="M617 510L682 505L696 435Z" fill="#f9fcfd" stroke="#f9fcfd"></path><path d="M688 600L682 505L617 510Z" fill="#cfe4ee" stroke="#cfe4ee"></path><path d="M226 600L299 600L332 460Z" fill="#edf5f8" stroke="#edf5f8"></path><path d="M375 128L267 131L282 223Z" fill="#c3ddea" stroke="#c3ddea"></path><path d="M671 292L707 216L622 274Z" fill="#ffffff" stroke="#ffffff"></path><path d="M622 188L615 96L530 130Z" fill="#c9e0ec" stroke="#c9e0ec"></path><path d="M760 182L707 216L838 328Z" fill="#edf5f8" stroke="#edf5f8"></path><path d="M73 462L171 482L61 411Z" fill="#ffffff" stroke="#ffffff"></path><path d="M221 361L171 482L296 376Z" fill="#d5e7f0" stroke="#d5e7f0"></path><path d="M732 86L615 96L622 188Z" fill="#e1eef4" stroke="#e1eef4"></path><path d="M530 130L400 0L375 128Z" fill="#f9fcfd" stroke="#f9fcfd"></path><path d="M375 128L308 0L267 131Z" fill="#cfe4ee" stroke="#cfe4ee"></path><path d="M171 482L226 600L332 460Z" fill="#d5e7f0" stroke="#d5e7f0"></path><path d="M788 522L813 424L696 435Z" fill="#e1eef4" stroke="#e1eef4"></path><path d="M838 328L707 216L671 292Z" fill="#edf5f8" stroke="#edf5f8"></path><path d="M582 600L688 600L617 510Z" fill="#edf5f8" stroke="#edf5f8"></path><path d="M507 0L400 0L530 130Z" fill="#f3f8fb" stroke="#f3f8fb"></path><path d="M707 216L732 86L622 188Z" fill="#c3ddea" stroke="#c3ddea"></path><path d="M838 328L671 292L696 435Z" fill="#edf5f8" stroke="#edf5f8"></path><path d="M615 96L507 0L530 130Z" fill="#c3ddea" stroke="#c3ddea"></path><path d="M617 0L507 0L615 96Z" fill="#e7f1f6" stroke="#e7f1f6"></path><path d="M308 0L223 68L267 131Z" fill="#f9fcfd" stroke="#f9fcfd"></path><path d="M267 131L223 68L233 182Z" fill="#ffffff" stroke="#ffffff"></path><path d="M65 272L61 411L205 300Z" fill="#cfe4ee" stroke="#cfe4ee"></path><path d="M61 411L171 482L221 361Z" fill="#dbebf2" stroke="#dbebf2"></path><path d="M788 522L696 435L682 505Z" fill="#e1eef4" stroke="#e1eef4"></path><path d="M400 0L308 0L375 128Z" fill="#f9fcfd" stroke="#f9fcfd"></path><path d="M769 600L788 522L682 505Z" fill="#c9e0ec" stroke="#c9e0ec"></path><path d="M61 411L221 361L205 300Z" fill="#c3ddea" stroke="#c3ddea"></path><path d="M171 482L88 600L226 600Z" fill="#f3f8fb" stroke="#f3f8fb"></path><path d="M65 272L205 300L84 208Z" fill="#edf5f8" stroke="#edf5f8"></path><path d="M84 208L205 300L233 182Z" fill="#ffffff" stroke="#ffffff"></path><path d="M127 96L84 208L233 182Z" fill="#edf5f8" stroke="#edf5f8"></path><path d="M760 182L732 86L707 216Z" fill="#e1eef4" stroke="#e1eef4"></path><path d="M688 0L617 0L615 96Z" fill="#edf5f8" stroke="#edf5f8"></path><path d="M900 296L838 328L900 435Z" fill="#f9fcfd" stroke="#f9fcfd"></path><path d="M813 424L838 328L696 435Z" fill="#edf5f8" stroke="#edf5f8"></path><path d="M760 182L773 71L732 86Z" fill="#c3ddea" stroke="#c3ddea"></path><path d="M688 600L769 600L682 505Z" fill="#cfe4ee" stroke="#cfe4ee"></path><path d="M900 435L838 328L813 424Z" fill="#d5e7f0" stroke="#d5e7f0"></path><path d="M170 0L127 96L223 68Z" fill="#f3f8fb" stroke="#f3f8fb"></path><path d="M223 68L127 96L233 182Z" fill="#cfe4ee" stroke="#cfe4ee"></path><path d="M732 86L688 0L615 96Z" fill="#dbebf2" stroke="#dbebf2"></path><path d="M0 505L88 600L73 462Z" fill="#e1eef4" stroke="#e1eef4"></path><path d="M73 462L88 600L171 482Z" fill="#ffffff" stroke="#ffffff"></path><path d="M900 137L773 71L760 182Z" fill="#c3ddea" stroke="#c3ddea"></path><path d="M732 86L773 71L688 0Z" fill="#c9e0ec" stroke="#c9e0ec"></path><path d="M0 166L65 272L84 208Z" fill="#c9e0ec" stroke="#c9e0ec"></path><path d="M0 166L0 338L65 272Z" fill="#dbebf2" stroke="#dbebf2"></path><path d="M65 272L0 338L61 411Z" fill="#dbebf2" stroke="#dbebf2"></path><path d="M61 411L0 429L73 462Z" fill="#f9fcfd" stroke="#f9fcfd"></path><path d="M308 0L170 0L223 68Z" fill="#e1eef4" stroke="#e1eef4"></path><path d="M127 96L0 166L84 208Z" fill="#cfe4ee" stroke="#cfe4ee"></path><path d="M0 338L0 429L61 411Z" fill="#cfe4ee" stroke="#cfe4ee"></path><path d="M900 435L813 424L900 486Z" fill="#d5e7f0" stroke="#d5e7f0"></path><path d="M838 328L900 296L760 182Z" fill="#f3f8fb" stroke="#f3f8fb"></path><path d="M900 486L813 424L788 522Z" fill="#c9e0ec" stroke="#c9e0ec"></path><path d="M0 429L0 505L73 462Z" fill="#e7f1f6" stroke="#e7f1f6"></path><path d="M900 600L900 486L788 522Z" fill="#edf5f8" stroke="#edf5f8"></path><path d="M0 106L0 166L127 96Z" fill="#e7f1f6" stroke="#e7f1f6"></path><path d="M900 0L787 0L773 71Z" fill="#cfe4ee" stroke="#cfe4ee"></path><path d="M773 71L787 0L688 0Z" fill="#c9e0ec" stroke="#c9e0ec"></path><path d="M900 296L900 166L760 182Z" fill="#c9e0ec" stroke="#c9e0ec"></path><path d="M170 0L89 0L127 96Z" fill="#f3f8fb" stroke="#f3f8fb"></path><path d="M900 166L900 137L760 182Z" fill="#f9fcfd" stroke="#f9fcfd"></path><path d="M0 505L0 600L88 600Z" fill="#cfe4ee" stroke="#cfe4ee"></path><path d="M89 0L0 106L127 96Z" fill="#e1eef4" stroke="#e1eef4"></path><path d="M769 600L900 600L788 522Z" fill="#ffffff" stroke="#ffffff"></path><path d="M89 0L0 0L0 106Z" fill="#c9e0ec" stroke="#c9e0ec"></path><path d="M900 137L900 0L773 71Z" fill="#cfe4ee" stroke="#cfe4ee"></path></g></svg>